<?xml version="1.0" encoding="UTF-8"?>
<svg version="1.1" xmlns="http://www.w3.org/2000/svg" width="200" height="200">
<path d="M0 0 C66 0 132 0 200 0 C200 66 200 132 200 200 C134 200 68 200 0 200 C0 134 0 68 0 0 Z " fill="#8160AC" transform="translate(0,0)"/>
<path d="M0 0 C9.24 0 18.48 0 28 0 C28.33 8.58 28.66 17.16 29 26 C19.1 26 9.2 26 -1 26 C-1 12 -1 12 0 0 Z " fill="#359CDD" transform="translate(22,93)"/>
<path d="M0 0 C10.56 0 21.12 0 32 0 C32.2475 4.08375 32.2475 4.08375 32.5 8.25 C32.57831055 9.49571777 32.57831055 9.49571777 32.65820312 10.76660156 C33.03169966 17.21386321 33 23.50523525 33 30 C21.78 30 10.56 30 -1 30 C-1.020625 25.978125 -1.04125 21.95625 -1.0625 17.8125 C-1.071604 16.55284424 -1.08070801 15.29318848 -1.09008789 13.99536133 C-1.09383423 12.49138794 -1.09383423 12.49138794 -1.09765625 10.95703125 C-1.10289307 9.93585205 -1.10812988 8.91467285 -1.11352539 7.86254883 C-1 5 -1 5 0 0 Z M2 2 C0.80622721 14.31834101 0.80622721 14.31834101 1 28 C10.9 28 20.8 28 31 28 C30.505 15.13 30.505 15.13 30 2 C20.76 2 11.52 2 2 2 Z " fill="#090E16" transform="translate(20,91)"/>
<path d="M0 0 C1.20462891 -0.02126953 1.20462891 -0.02126953 2.43359375 -0.04296875 C4.5625 0.1875 4.5625 0.1875 6.5625 2.1875 C6.86328125 4.24609375 6.86328125 4.24609375 6.875 6.625 C6.89175781 7.40746094 6.90851563 8.18992187 6.92578125 8.99609375 C6.47730884 11.70139505 5.74705408 12.57082766 3.5625 14.1875 C-0.51544425 14.61228586 -1.96826119 14.50032587 -5.4375 12.1875 C-5.765625 9.62109375 -5.765625 9.62109375 -5.6875 6.625 C-5.67203125 5.63371094 -5.6565625 4.64242187 -5.640625 3.62109375 C-5.29730225 -0.49217684 -3.7282542 0.02982603 0 0 Z " fill="#09070D" transform="translate(77.4375,103.8125)"/>
<path d="M0 0 C0.8146875 0.00257812 1.629375 0.00515625 2.46875 0.0078125 C3.2834375 0.00523438 4.098125 0.00265625 4.9375 0 C6.96875 0.1328125 6.96875 0.1328125 7.96875 1.1328125 C8.06726171 2.96397133 8.09847629 4.79901183 8.09375 6.6328125 C8.09632813 7.633125 8.09890625 8.6334375 8.1015625 9.6640625 C7.96875 12.1328125 7.96875 12.1328125 6.96875 13.1328125 C5.47136876 13.2307182 3.96932108 13.26256114 2.46875 13.2578125 C1.6540625 13.26039062 0.839375 13.26296875 0 13.265625 C-2.03125 13.1328125 -2.03125 13.1328125 -3.03125 12.1328125 C-3.12976171 10.30165367 -3.16097629 8.46661317 -3.15625 6.6328125 C-3.15882813 5.6325 -3.16140625 4.6321875 -3.1640625 3.6015625 C-2.98079257 0.19489798 -2.98079257 0.19489798 0 0 Z " fill="#020203" transform="translate(140.03125,103.8671875)"/>
<path d="M0 0 C5 1 5 1 7 3 C7.33 2.01 7.66 1.02 8 0 C9.32 0 10.64 0 12 0 C12 4.29 12 8.58 12 13 C10.68 13 9.36 13 8 13 C7.34 11.68 6.68 10.36 6 9 C5.67 10.32 5.34 11.64 5 13 C3.35 13 1.7 13 0 13 C0 8.71 0 4.42 0 0 Z " fill="#08060B" transform="translate(150,104)"/>
<path d="M0 0 C1.32 0 2.64 0 4 0 C4 3.3 4 6.6 4 10 C4.99 10 5.98 10 7 10 C7 6.7 7 3.4 7 0 C8.65 0 10.3 0 12 0 C12.08114106 1.77007714 12.13925505 3.54122098 12.1875 5.3125 C12.22230469 6.29863281 12.25710937 7.28476563 12.29296875 8.30078125 C12 11 12 11 10.67578125 12.8359375 C8.10121798 14.62432877 6.04753132 14.31745118 3 14 C2.01 13.34 1.02 12.68 0 12 C-0.29296875 9.1796875 -0.29296875 9.1796875 -0.1875 5.875 C-0.16042969 4.77929688 -0.13335937 3.68359375 -0.10546875 2.5546875 C-0.07066406 1.71164063 -0.03585938 0.86859375 0 0 Z " fill="#0B080F" transform="translate(99,104)"/>
<path d="M0 0 C2.05078125 0.03255208 4.1015625 0.06510417 6.15234375 0.09765625 C6.15234375 1.08765625 6.15234375 2.07765625 6.15234375 3.09765625 C4.50234375 3.09765625 2.85234375 3.09765625 1.15234375 3.09765625 C1.15234375 3.75765625 1.15234375 4.41765625 1.15234375 5.09765625 C4.12234375 5.59265625 4.12234375 5.59265625 7.15234375 6.09765625 C7.19488731 8.09720371 7.19315158 10.09807261 7.15234375 12.09765625 C6.15234375 13.09765625 6.15234375 13.09765625 3.8671875 13.1953125 C2.49240234 13.17791016 2.49240234 13.17791016 1.08984375 13.16015625 C0.17074219 13.15113281 -0.74835938 13.14210938 -1.6953125 13.1328125 C-2.40558594 13.12121094 -3.11585938 13.10960938 -3.84765625 13.09765625 C-3.84765625 12.10765625 -3.84765625 11.11765625 -3.84765625 10.09765625 C-1.86765625 10.09765625 0.11234375 10.09765625 2.15234375 10.09765625 C2.15234375 9.43765625 2.15234375 8.77765625 2.15234375 8.09765625 C0.50234375 8.09765625 -1.14765625 8.09765625 -2.84765625 8.09765625 C-2.89007348 5.7647085 -2.88858562 3.43063058 -2.84765625 1.09765625 C-1.84765625 0.09765625 -1.84765625 0.09765625 0 0 Z " fill="#050407" transform="translate(167.84765625,103.90234375)"/>
<path d="M0 0 C2.05078125 0.03255208 4.1015625 0.06510417 6.15234375 0.09765625 C6.15234375 1.08765625 6.15234375 2.07765625 6.15234375 3.09765625 C4.50234375 3.09765625 2.85234375 3.09765625 1.15234375 3.09765625 C1.15234375 3.75765625 1.15234375 4.41765625 1.15234375 5.09765625 C1.95671875 5.07703125 2.76109375 5.05640625 3.58984375 5.03515625 C6.15234375 5.09765625 6.15234375 5.09765625 7.15234375 6.09765625 C7.27734375 9.09765625 7.27734375 9.09765625 7.15234375 12.09765625 C6.15234375 13.09765625 6.15234375 13.09765625 3.8671875 13.1953125 C2.49240234 13.17791016 2.49240234 13.17791016 1.08984375 13.16015625 C0.17074219 13.15113281 -0.74835937 13.14210938 -1.6953125 13.1328125 C-2.40558594 13.12121094 -3.11585937 13.10960938 -3.84765625 13.09765625 C-3.84765625 12.10765625 -3.84765625 11.11765625 -3.84765625 10.09765625 C-1.86765625 9.76765625 0.11234375 9.43765625 2.15234375 9.09765625 C-0.32265625 8.10765625 -0.32265625 8.10765625 -2.84765625 7.09765625 C-2.89019981 5.09810879 -2.88846408 3.09723989 -2.84765625 1.09765625 C-1.84765625 0.09765625 -1.84765625 0.09765625 0 0 Z " fill="#040306" transform="translate(62.84765625,103.90234375)"/>
<path d="M0 0 C0.33 0 0.66 0 1 0 C1 2.97 1 5.94 1 9 C10.9 9 20.8 9 31 9 C31 8.01 31 7.02 31 6 C31.66 6 32.32 6 33 6 C33 7.65 33 9.3 33 11 C21.78 11 10.56 11 -1 11 C-1 1 -1 1 0 0 Z " fill="#000000" transform="translate(20,110)"/>
<path d="M0 0 C2.97 0 5.94 0 9 0 C9 0.99 9 1.98 9 3 C8.34 3 7.68 3 7 3 C7 5.31 7 7.62 7 10 C7.66 10 8.32 10 9 10 C9 10.99 9 11.98 9 13 C6.03 13 3.06 13 0 13 C0 12.01 0 11.02 0 10 C0.66 10 1.32 10 2 10 C2 7.69 2 5.38 2 3 C1.34 3 0.68 3 0 3 C0 2.01 0 1.02 0 0 Z " fill="#040306" transform="translate(125,104)"/>
<path d="M0 0 C1.32 0 2.64 0 4 0 C4 3.3 4 6.6 4 10 C4.99 10 5.98 10 7 10 C7 8.68 7 7.36 7 6 C8.32 6 9.64 6 11 6 C11 8.31 11 10.62 11 13 C7.37 13 3.74 13 0 13 C0 8.71 0 4.42 0 0 Z " fill="#020203" transform="translate(86,104)"/>
<path d="M0 0 C4 1 4 1 5 2 C5.33 1.34 5.66 0.68 6 0 C6.99 0 7.98 0 9 0 C9 3.3 9 6.6 9 10 C8.01 10 7.02 10 6 10 C6 9.01 6 8.02 6 7 C5.34 7 4.68 7 4 7 C4 7.99 4 8.98 4 10 C2.68 10 1.36 10 0 10 C0 6.7 0 3.4 0 0 Z " fill="#150F1C" transform="translate(88,89)"/>
<path d="M0 0 C2.31 0 4.62 0 7 0 C8.31626692 3.61973402 9 6.09567131 9 10 C8.01 10 7.02 10 6 10 C6 9.01 6 8.02 6 7 C5.01 7 4.02 7 3 7 C3 7.99 3 8.98 3 10 C2.01 10 1.02 10 0 10 C0 6.7 0 3.4 0 0 Z " fill="#1B1424" transform="translate(130,89)"/>
<path d="M0 0 C3.63 0 7.26 0 11 0 C11 0.99 11 1.98 11 3 C10.01 3 9.02 3 8 3 C8 6.3 8 9.6 8 13 C6.68 13 5.36 13 4 13 C4 9.7 4 6.4 4 3 C2.68 3 1.36 3 0 3 C0 2.01 0 1.02 0 0 Z " fill="#010001" transform="translate(112,104)"/>
<path d="M0 0 C0.99 0 1.98 0 3 0 C3 1.32 3 2.64 3 4 C3.99 4 4.98 4 6 4 C6 2.68 6 1.36 6 0 C6.99 0 7.98 0 9 0 C9 3.3 9 6.6 9 10 C7.68 10 6.36 10 5 10 C5 9.01 5 8.02 5 7 C4.34 7 3.68 7 3 7 C3 7.99 3 8.98 3 10 C2.01 10 1.02 10 0 10 C0 6.7 0 3.4 0 0 Z " fill="#140F1B" transform="translate(175,89)"/>
<path d="M0 0 C1.65 0 3.3 0 5 0 C7.09350689 3.4019487 7.17942163 6.05272412 7 10 C6.01 10 5.02 10 4 10 C4 9.34 4 8.68 4 8 C3.01 8 2.02 8 1 8 C1 8.66 1 9.32 1 10 C0.01 10 -0.98 10 -2 10 C-2.17942163 6.05272412 -2.09350689 3.4019487 0 0 Z " fill="#16101D" transform="translate(100,89)"/>
<path d="M0 0 C1.98 0 3.96 0 6 0 C7.60355101 3.50776784 8.22036864 6.14354879 8 10 C7.01 10 6.02 10 5 10 C5 9.01 5 8.02 5 7 C4.34 7 3.68 7 3 7 C3 7.99 3 8.98 3 10 C2.01 10 1.02 10 0 10 C0 6.7 0 3.4 0 0 Z " fill="#0B080F" transform="translate(69,89)"/>
<path d="M0 0 C2.33294775 -0.04241723 4.66702567 -0.04092937 7 0 C8 1 8 1 8.0625 4.0625 C8.041875 5.031875 8.02125 6.00125 8 7 C6.68 7 5.36 7 4 7 C4 7.99 4 8.98 4 10 C2.68 10 1.36 10 0 10 C0 6.7 0 3.4 0 0 Z " fill="#181220" transform="translate(59,89)"/>
<path d="M0 0 C1.98 0 3.96 0 6 0 C6.19412181 1.47831221 6.38012131 2.95769316 6.5625 4.4375 C6.66691406 5.26121094 6.77132812 6.08492188 6.87890625 6.93359375 C6.91886719 7.61550781 6.95882812 8.29742187 7 9 C6 10 6 10 2.4375 10.0625 C1.303125 10.041875 0.16875 10.02125 -1 10 C-0.814375 9.4225 -0.62875 8.845 -0.4375 8.25 C0.04394633 5.77399031 -0.36051901 4.39805371 -1 2 C-0.67 1.34 -0.34 0.68 0 0 Z " fill="#140F1A" transform="translate(167,89)"/>
<path d="M0 0 C1.65 0 3.3 0 5 0 C7.09350689 3.4019487 7.17942163 6.05272412 7 10 C6.01 10 5.02 10 4 10 C4 9.01 4 8.02 4 7 C3.54625 7.495 3.0925 7.99 2.625 8.5 C1 10 1 10 -1 10 C-1.125 2.25 -1.125 2.25 0 0 Z " fill="#0F0B14" transform="translate(80,89)"/>
<path d="M0 0 C5.75 -0.125 5.75 -0.125 8 1 C8 2.65 8 4.3 8 6 C6.35 6.33 4.7 6.66 3 7 C3 7.99 3 8.98 3 10 C2.01 10 1.02 10 0 10 C0 6.7 0 3.4 0 0 Z " fill="#0F0B14" transform="translate(121,89)"/>
<path d="M0 0 C0.99 0 1.98 0 3 0 C3.33 1.98 3.66 3.96 4 6 C4.33 4.02 4.66 2.04 5 0 C5.99 0 6.98 0 8 0 C8.125 6.625 8.125 6.625 7 10 C5.35 10 3.7 10 2 10 C-0.09350689 6.5980513 -0.17942163 3.94727588 0 0 Z " fill="#070509" transform="translate(108,89)"/>
<path d="M0 0 C3 2.1875 3 2.1875 5 5 C5.3125 7.8125 5.3125 7.8125 5 10 C4.34 10 3.68 10 3 10 C2.71125 9.030625 2.4225 8.06125 2.125 7.0625 C1.35785318 3.89335797 1.35785318 3.89335797 -1 3 C-5.12868763 2.57029553 -5.12868763 2.57029553 -8.75 4.25 C-10.0672814 6.09419396 -11.07360134 7.93341837 -12 10 C-12.33 10 -12.66 10 -13 10 C-12.52039967 3.64529559 -12.52039967 3.64529559 -10.4375 1.0625 C-6.92820158 -0.46719418 -3.7120686 -0.78651751 0 0 Z " fill="#0F0B14" transform="translate(40,79)"/>
<path d="M0 0 C2.31 0 4.62 0 7 0 C6.67 1.98 6.34 3.96 6 6 C5.01 6 4.02 6 3 6 C3 6.66 3 7.32 3 8 C4.32 8 5.64 8 7 8 C7 8.66 7 9.32 7 10 C4.69 10 2.38 10 0 10 C0 6.7 0 3.4 0 0 Z " fill="#09070C" transform="translate(158,89)"/>
<path d="M0 0 C0.99 0 1.98 0 3 0 C3 1.32 3 2.64 3 4 C3.66 4 4.32 4 5 4 C5 2.68 5 1.36 5 0 C5.99 0 6.98 0 8 0 C7.54177532 3.46941546 7.10868317 6.67395049 6 10 C4.68 10 3.36 10 2 10 C0.39644899 6.49223216 -0.22036864 3.85645121 0 0 Z " fill="#0E0A12" transform="translate(148,89)"/>
<path d="M0 0 C2.31 0 4.62 0 7 0 C7 0.99 7 1.98 7 3 C6.34 3 5.68 3 5 3 C5 4.32 5 5.64 5 7 C5.66 7 6.32 7 7 7 C7 7.99 7 8.98 7 10 C4.69 10 2.38 10 0 10 C0 9.34 0 8.68 0 8 C0.66 8 1.32 8 2 8 C2 6.35 2 4.7 2 3 C1.34 3 0.68 3 0 3 C0 2.01 0 1.02 0 0 Z " fill="#100C16" transform="translate(140,89)"/>
<path d="M0 0 C0.99 0.66 1.98 1.32 3 2 C3.3984375 4.09375 3.3984375 4.09375 3.375 6.5 C3.38273438 7.2940625 3.39046875 8.088125 3.3984375 8.90625 C3.26695312 9.5971875 3.13546875 10.288125 3 11 C2.01 11.66 1.02 12.32 0 13 C0 12.01 0 11.02 0 10 C-0.66 10 -1.32 10 -2 10 C-2 7.69 -2 5.38 -2 3 C-1.34 3 -0.68 3 0 3 C0 2.01 0 1.02 0 0 Z " fill="#674D89" transform="translate(134,104)"/>
<path d="M0 0 C0.99 0.33 1.98 0.66 3 1 C3 2.98 3 4.96 3 7 C4.65 7 6.3 7 8 7 C8 7.66 8 8.32 8 9 C5.69 9 3.38 9 1 9 C0.67 9.99 0.34 10.98 0 12 C0 8.04 0 4.08 0 0 Z " fill="#634A84" transform="translate(162,105)"/>
<path d="M0 0 C1.32 0 2.64 0 4 0 C4 0.66 4 1.32 4 2 C3.34 2 2.68 2 2 2 C2.66 3.32 3.32 4.64 4 6 C3.34 6 2.68 6 2 6 C2 6.99 2 7.98 2 9 C1.34 9 0.68 9 0 9 C0 6.03 0 3.06 0 0 Z " fill="#030205" transform="translate(131,90)"/>
<path d="M0 0 C0.33 0.99 0.66 1.98 1 3 C1.66 3 2.32 3 3 3 C3 5.31 3 7.62 3 10 C2.608125 9.360625 2.21625 8.72125 1.8125 8.0625 C-0.38472296 5.56221181 -1.75791433 5.35049575 -5 5 C-5 4.34 -5 3.68 -5 3 C-3.35 3 -1.7 3 0 3 C0 2.01 0 1.02 0 0 Z " fill="#624983" transform="translate(69,104)"/>
<path d="M0 0 C1 2 2 4 3 6 C0.69 6.33 -1.62 6.66 -4 7 C-4 6.34 -4 5.68 -4 5 C-3.01 5 -2.02 5 -1 5 C-1 4.34 -1 3.68 -1 3 C-1.99 2.67 -2.98 2.34 -4 2 C-2.68 2 -1.36 2 0 2 C0 1.34 0 0.68 0 0 Z " fill="#715597" transform="translate(165,90)"/>
<path d="M0 0 C0.99 0 1.98 0 3 0 C3 2.31 3 4.62 3 7 C2.01 7 1.02 7 0 7 C0 4.69 0 2.38 0 0 Z " fill="#7A5BA2" transform="translate(141,107)"/>
<path d="M0 0 C0.99 0 1.98 0 3 0 C3 2.31 3 4.62 3 7 C2.01 7 1.02 7 0 7 C0 4.69 0 2.38 0 0 Z " fill="#705495" transform="translate(76,107)"/>
<path d="M0 0 C0.33 0.99 0.66 1.98 1 3 C1.66 3.33 2.32 3.66 3 4 C2.34 4 1.68 4 1 4 C1 4.99 1 5.98 1 7 C0.01 7 -0.98 7 -2 7 C-2 5.02 -2 3.04 -2 1 C-1.34 0.67 -0.68 0.34 0 0 Z " fill="#0D0A12" transform="translate(100,92)"/>
<path d="M0 0 C0.99 0 1.98 0 3 0 C3 1.98 3 3.96 3 6 C2.01 6.33 1.02 6.66 0 7 C0 4.69 0 2.38 0 0 Z " fill="#0E0A12" transform="translate(113,89)"/>
</svg>
